<svg xmlns="http://www.w3.org/2000/svg" width="340" height="340" viewBox="0 0 340 340">
  <g id="Group_4" data-name="Group 4" transform="translate(-25 -182)">
    <rect id="Rectangle_6986" data-name="Rectangle 6986" width="340" height="340" rx="5" transform="translate(25 182)" fill="#f3f2f7"/>
    <path id="Path_1" data-name="Path 1" d="M55.842-49.878a5.458,5.458,0,0,0-8.805-.011L34.461-30.852l-2.819-3.884a5.372,5.372,0,0,0-8.542,0L12.011-19.412a5.3,5.3,0,0,0-.438,5.5A5.234,5.234,0,0,0,16.285-11h55.43a5.266,5.266,0,0,0,4.665-2.815,5.315,5.315,0,0,0-.261-5.424ZM16.466-16.5,27.189-31.518l5.141,7.105a2.61,2.61,0,0,0,2.286,1.141,2.752,2.752,0,0,0,2.238-1.235L51.262-46.834,71.328-16.5H16.466Zm60.38-55h-66A10.969,10.969,0,0,0,0-60.5v55a10.967,10.967,0,0,0,10.845,11h66a11,11,0,0,0,11-11v-55A10.9,10.9,0,0,0,76.845-71.5ZM82.5-5.5A5.507,5.507,0,0,1,77,0H11A5.507,5.507,0,0,1,5.5-5.5v-55A5.507,5.507,0,0,1,11-66H77a5.507,5.507,0,0,1,5.5,5.5ZM24.75-44A8.252,8.252,0,0,0,33-52.25a8.252,8.252,0,0,0-8.25-8.25,8.252,8.252,0,0,0-8.25,8.25A8.252,8.252,0,0,0,24.75-44Zm0-11a2.625,2.625,0,0,1,2.6,2.75,2.628,2.628,0,0,1-2.6,2.75A2.758,2.758,0,0,1,22-52.25,2.758,2.758,0,0,1,24.75-55Z" transform="translate(141 385)" fill="#c8c4d9"/>
    <g id="Group_3" data-name="Group 3" transform="translate(-49 180)">
      <rect id="Rectangle_7020" data-name="Rectangle 7020" width="28" height="22" transform="translate(265 186)" fill="#f3f2f7"/>
      <text id="plus-circle" transform="translate(260 211)" fill="#c8c4d9" font-size="38" font-family="FontAwesome6Pro-Solid, 'Font Awesome \36  Pro'"><tspan x="0" y="0">plus-circle</tspan></text>
    </g>
    <path id="Path_3" data-name="Path 3" d="M14.732,9.6a4.785,4.785,0,0,1-.952,2.429,5.264,5.264,0,0,1-2.093,1.617,7.277,7.277,0,0,1-2.975.574,7.084,7.084,0,0,1-3.206-.686A5.165,5.165,0,0,1,3.371,11.62a5.339,5.339,0,0,1-.763-2.87,5.339,5.339,0,0,1,.763-2.87A5.165,5.165,0,0,1,5.506,3.962a7.084,7.084,0,0,1,3.206-.686,7.277,7.277,0,0,1,2.975.574A5.264,5.264,0,0,1,13.78,5.467,4.785,4.785,0,0,1,14.732,7.9H11.82a2.481,2.481,0,0,0-.546-1.141,2.617,2.617,0,0,0-1.057-.721,4.152,4.152,0,0,0-1.505-.252,3.748,3.748,0,0,0-1.694.357A2.518,2.518,0,0,0,5.926,7.161,3.165,3.165,0,0,0,5.548,8.75a3.165,3.165,0,0,0,.378,1.589,2.518,2.518,0,0,0,1.092,1.022,3.748,3.748,0,0,0,1.694.357,4.372,4.372,0,0,0,1.505-.238,2.473,2.473,0,0,0,1.057-.714A2.536,2.536,0,0,0,11.82,9.6ZM15.908,3.22h2.87V14h-2.87Zm4.438,2.66,1.442.28,1.428-.28V14h-2.87Zm1.428-.658a1.864,1.864,0,0,1-1.2-.371,1.231,1.231,0,0,1-.462-1.015,1.236,1.236,0,0,1,.462-1.008,2.14,2.14,0,0,1,2.429,0,1.244,1.244,0,0,1,.455,1.008A1.239,1.239,0,0,1,23,4.851,1.881,1.881,0,0,1,21.774,5.222Zm12.544,5.4a3.458,3.458,0,0,1-.784,1.89,4.437,4.437,0,0,1-1.743,1.26,6.167,6.167,0,0,1-2.4.448,5.972,5.972,0,0,1-2.59-.532,4.209,4.209,0,0,1-1.75-1.484,3.891,3.891,0,0,1-.63-2.2A3.915,3.915,0,0,1,25.05,7.8,4.258,4.258,0,0,1,26.8,6.307a5.906,5.906,0,0,1,2.59-.539,6.084,6.084,0,0,1,2.4.455,4.531,4.531,0,0,1,1.743,1.26,3.437,3.437,0,0,1,.784,1.9H31.476a1.717,1.717,0,0,0-.714-1.1,2.615,2.615,0,0,0-2.471-.14,1.732,1.732,0,0,0-.728.714A2.361,2.361,0,0,0,27.3,10.01a2.33,2.33,0,0,0,.259,1.141,1.732,1.732,0,0,0,.728.714,2.342,2.342,0,0,0,1.1.245,2.306,2.306,0,0,0,1.379-.406,1.715,1.715,0,0,0,.707-1.078Zm4,1.092-.784-.266,4.424-5.446h3.01L38.014,14H35.452V3.22h2.87Zm1.358-1.624,2.156-1.512L45.182,14h-3.22ZM48.29,8.12V6.874l1.624-.658L51.146,3.85H52.77V6.006h3.36V8.12H52.77v2.352a1.7,1.7,0,0,0,.35,1.218,1.794,1.794,0,0,0,1.274.35,4.663,4.663,0,0,0,1.043-.1,4.589,4.589,0,0,0,.833-.273v2.156a6.968,6.968,0,0,1-1.106.28,7.812,7.812,0,0,1-1.414.126,5.049,5.049,0,0,1-2.177-.406,2.682,2.682,0,0,1-1.253-1.169,3.746,3.746,0,0,1-.406-1.785V8.12Zm13.65,6.1a6.41,6.41,0,0,1-2.688-.525,4.208,4.208,0,0,1-1.792-1.484,3.862,3.862,0,0,1-.644-2.2,3.877,3.877,0,0,1,.644-2.226A4.275,4.275,0,0,1,59.252,6.3a7.039,7.039,0,0,1,5.369,0,4.267,4.267,0,0,1,1.8,1.484,3.877,3.877,0,0,1,.644,2.226,3.862,3.862,0,0,1-.644,2.2,4.2,4.2,0,0,1-1.8,1.484A6.421,6.421,0,0,1,61.94,14.224Zm0-2.114a2.621,2.621,0,0,0,1.2-.252,1.77,1.77,0,0,0,.763-.728,2.259,2.259,0,0,0,.266-1.12A2.28,2.28,0,0,0,63.9,8.869a1.781,1.781,0,0,0-.763-.721,2.621,2.621,0,0,0-1.2-.252,2.665,2.665,0,0,0-1.2.252,1.773,1.773,0,0,0-.77.721A2.25,2.25,0,0,0,59.7,10a2.289,2.289,0,0,0,.266,1.134,1.761,1.761,0,0,0,.77.728A2.665,2.665,0,0,0,61.94,12.11Zm13.244,2.114a3.727,3.727,0,0,1-1.911-.462,3.045,3.045,0,0,1-1.211-1.309,4.408,4.408,0,0,1-.42-1.981V6.006H74.5v4.06a1.946,1.946,0,0,0,.434,1.358,1.6,1.6,0,0,0,1.246.476,1.92,1.92,0,0,0,1.008-.245,1.634,1.634,0,0,0,.63-.707,2.514,2.514,0,0,0,.224-1.106l.882.462a5.259,5.259,0,0,1-.693,2.149,3.739,3.739,0,0,1-1.323,1.323A3.41,3.41,0,0,1,75.184,14.224ZM78.558,14l-.518-3.206V6.006H80.9v5.236L81.414,14Zm4.06-7.994h2.87V8.3l-.126.336v2.24l.126.658V16.31h-2.87Zm1.96,4a5.766,5.766,0,0,1,.763-2.247,4.24,4.24,0,0,1,1.477-1.47,4.23,4.23,0,0,1,4.1.007A3.668,3.668,0,0,1,92.3,7.784a4.745,4.745,0,0,1,.5,2.226,4.724,4.724,0,0,1-.5,2.2A3.61,3.61,0,0,1,90.913,13.7a3.985,3.985,0,0,1-2.065.525,3.94,3.94,0,0,1-2.03-.525,4.166,4.166,0,0,1-1.47-1.477A6.036,6.036,0,0,1,84.578,10.01Zm5.334,0a2.237,2.237,0,0,0-.245-1.064,1.84,1.84,0,0,0-.686-.728,1.9,1.9,0,0,0-1-.266,2.359,2.359,0,0,0-1.092.266,2.959,2.959,0,0,0-.91.728,3.315,3.315,0,0,0-.6,1.064,3.348,3.348,0,0,0,.6,1.05,2.869,2.869,0,0,0,.91.721,2.41,2.41,0,0,0,1.092.259,1.939,1.939,0,0,0,1-.259,1.792,1.792,0,0,0,.686-.721A2.207,2.207,0,0,0,89.912,10.01Zm4.116-6.79H96.9V14h-2.87Zm9.2,11a6.409,6.409,0,0,1-2.688-.525,4.208,4.208,0,0,1-1.792-1.484,3.862,3.862,0,0,1-.644-2.2,3.877,3.877,0,0,1,.644-2.226A4.275,4.275,0,0,1,100.538,6.3a7.039,7.039,0,0,1,5.369,0,4.267,4.267,0,0,1,1.8,1.484,3.877,3.877,0,0,1,.644,2.226,3.862,3.862,0,0,1-.644,2.2,4.2,4.2,0,0,1-1.8,1.484A6.421,6.421,0,0,1,103.226,14.224Zm0-2.114a2.621,2.621,0,0,0,1.2-.252,1.77,1.77,0,0,0,.763-.728,2.259,2.259,0,0,0,.266-1.12,2.28,2.28,0,0,0-.266-1.141,1.781,1.781,0,0,0-.763-.721,2.621,2.621,0,0,0-1.2-.252,2.665,2.665,0,0,0-1.2.252,1.773,1.773,0,0,0-.77.721A2.25,2.25,0,0,0,100.986,10a2.289,2.289,0,0,0,.266,1.134,1.761,1.761,0,0,0,.77.728A2.665,2.665,0,0,0,103.226,12.11ZM116.778,14l-.364-2.884.378-1.106L116.414,8.9l.364-2.9h2.968l-.5,3.99.5,4Zm.672-3.99a5.958,5.958,0,0,1-.777,2.212A4.243,4.243,0,0,1,115.2,13.7a3.9,3.9,0,0,1-2.023.525,3.985,3.985,0,0,1-2.065-.525,3.657,3.657,0,0,1-1.393-1.484,4.67,4.67,0,0,1-.5-2.2,4.69,4.69,0,0,1,.5-2.226A3.716,3.716,0,0,1,111.115,6.3a3.944,3.944,0,0,1,2.065-.532,3.9,3.9,0,0,1,2.023.525,4.319,4.319,0,0,1,1.477,1.47A5.7,5.7,0,0,1,117.45,10.01Zm-5.334,0a2.207,2.207,0,0,0,.245,1.05,1.806,1.806,0,0,0,.679.721,1.9,1.9,0,0,0,.994.259,2.44,2.44,0,0,0,1.106-.259,2.869,2.869,0,0,0,.91-.721,3.143,3.143,0,0,0,.588-1.05,3.118,3.118,0,0,0-.588-1.064,2.959,2.959,0,0,0-.91-.728,2.387,2.387,0,0,0-1.106-.266,1.835,1.835,0,0,0-1.673.994A2.237,2.237,0,0,0,112.116,10.01ZM128.342,14l-.378-3,.49-.98-.476-1.232.672-5.572h2.968l-.826,6.566L131.3,14Zm.616-3.99a5.958,5.958,0,0,1-.777,2.212,4.243,4.243,0,0,1-1.47,1.477,3.9,3.9,0,0,1-2.023.525,3.985,3.985,0,0,1-2.065-.525,3.657,3.657,0,0,1-1.393-1.484,4.67,4.67,0,0,1-.5-2.2,4.69,4.69,0,0,1,.5-2.226A3.716,3.716,0,0,1,122.623,6.3a3.944,3.944,0,0,1,2.065-.532,3.9,3.9,0,0,1,2.023.525,4.319,4.319,0,0,1,1.477,1.47A5.7,5.7,0,0,1,128.958,10.01Zm-5.334,0a2.207,2.207,0,0,0,.245,1.05,1.806,1.806,0,0,0,.679.721,1.9,1.9,0,0,0,.994.259,2.44,2.44,0,0,0,1.106-.259,2.869,2.869,0,0,0,.91-.721,3.142,3.142,0,0,0,.588-1.05,3.118,3.118,0,0,0-.588-1.064,2.959,2.959,0,0,0-.91-.728,2.387,2.387,0,0,0-1.106-.266,1.835,1.835,0,0,0-1.673.994A2.237,2.237,0,0,0,123.624,10.01ZM143.35,14l-.364-2.884.378-1.106L142.986,8.9l.364-2.9h2.968l-.5,3.99.5,4Zm.672-3.99a5.958,5.958,0,0,1-.777,2.212,4.242,4.242,0,0,1-1.47,1.477,3.9,3.9,0,0,1-2.023.525,3.985,3.985,0,0,1-2.065-.525,3.657,3.657,0,0,1-1.393-1.484,4.67,4.67,0,0,1-.5-2.2,4.69,4.69,0,0,1,.5-2.226A3.716,3.716,0,0,1,137.687,6.3a3.944,3.944,0,0,1,2.065-.532,3.9,3.9,0,0,1,2.023.525,4.319,4.319,0,0,1,1.477,1.47A5.7,5.7,0,0,1,144.022,10.01Zm-5.334,0a2.206,2.206,0,0,0,.245,1.05,1.806,1.806,0,0,0,.679.721,1.9,1.9,0,0,0,.994.259,2.439,2.439,0,0,0,1.106-.259,2.869,2.869,0,0,0,.91-.721,3.142,3.142,0,0,0,.588-1.05,3.118,3.118,0,0,0-.588-1.064,2.959,2.959,0,0,0-.91-.728,2.387,2.387,0,0,0-1.106-.266,1.835,1.835,0,0,0-1.673.994A2.237,2.237,0,0,0,138.688,10.01Zm12.474-4h2.87V8.3l-.126.336v2.24l.126.658V16.31h-2.87Zm1.96,4a5.766,5.766,0,0,1,.763-2.247,4.24,4.24,0,0,1,1.477-1.47,4.23,4.23,0,0,1,4.1.007,3.668,3.668,0,0,1,1.386,1.484,4.745,4.745,0,0,1,.5,2.226,4.724,4.724,0,0,1-.5,2.2,3.61,3.61,0,0,1-1.386,1.484,3.985,3.985,0,0,1-2.065.525,3.94,3.94,0,0,1-2.03-.525,4.166,4.166,0,0,1-1.47-1.477A6.035,6.035,0,0,1,153.122,10.01Zm5.334,0a2.237,2.237,0,0,0-.245-1.064,1.84,1.84,0,0,0-.686-.728,1.9,1.9,0,0,0-1-.266,2.359,2.359,0,0,0-1.092.266,2.959,2.959,0,0,0-.91.728,3.315,3.315,0,0,0-.6,1.064,3.348,3.348,0,0,0,.6,1.05,2.869,2.869,0,0,0,.91.721,2.41,2.41,0,0,0,1.092.259,1.939,1.939,0,0,0,1-.259,1.792,1.792,0,0,0,.686-.721A2.206,2.206,0,0,0,158.456,10.01Zm4.116-4.13,1.442.28,1.428-.28V14h-2.87ZM164,5.222a1.864,1.864,0,0,1-1.2-.371,1.231,1.231,0,0,1-.462-1.015,1.236,1.236,0,0,1,.462-1.008,2.14,2.14,0,0,1,2.429,0,1.244,1.244,0,0,1,.455,1.008,1.239,1.239,0,0,1-.455,1.015A1.881,1.881,0,0,1,164,5.222Zm12.544,5.4a3.458,3.458,0,0,1-.784,1.89,4.437,4.437,0,0,1-1.743,1.26,6.167,6.167,0,0,1-2.4.448,5.972,5.972,0,0,1-2.59-.532,4.209,4.209,0,0,1-1.75-1.484,3.891,3.891,0,0,1-.63-2.2,3.915,3.915,0,0,1,.63-2.212,4.257,4.257,0,0,1,1.75-1.491,5.906,5.906,0,0,1,2.59-.539,6.084,6.084,0,0,1,2.4.455,4.531,4.531,0,0,1,1.743,1.26,3.437,3.437,0,0,1,.784,1.9H173.7a1.717,1.717,0,0,0-.714-1.1,2.615,2.615,0,0,0-2.471-.14,1.732,1.732,0,0,0-.728.714,2.361,2.361,0,0,0-.259,1.155,2.33,2.33,0,0,0,.259,1.141,1.732,1.732,0,0,0,.728.714,2.342,2.342,0,0,0,1.1.245,2.306,2.306,0,0,0,1.379-.406,1.715,1.715,0,0,0,.707-1.078Zm.322-2.506V6.874l1.624-.658,1.232-2.366h1.624V6.006h3.36V8.12h-3.36v2.352a1.7,1.7,0,0,0,.35,1.218,1.793,1.793,0,0,0,1.274.35,4.663,4.663,0,0,0,1.043-.1,4.589,4.589,0,0,0,.833-.273v2.156a6.968,6.968,0,0,1-1.106.28,7.812,7.812,0,0,1-1.414.126,5.049,5.049,0,0,1-2.177-.406,2.682,2.682,0,0,1-1.253-1.169,3.746,3.746,0,0,1-.406-1.785V8.12Zm12.586,6.1a3.727,3.727,0,0,1-1.911-.462,3.045,3.045,0,0,1-1.211-1.309,4.408,4.408,0,0,1-.42-1.981V6.006h2.856v4.06a1.946,1.946,0,0,0,.434,1.358,1.6,1.6,0,0,0,1.246.476,1.92,1.92,0,0,0,1.008-.245,1.634,1.634,0,0,0,.63-.707,2.514,2.514,0,0,0,.224-1.106l.882.462a5.259,5.259,0,0,1-.693,2.149,3.739,3.739,0,0,1-1.323,1.323A3.41,3.41,0,0,1,189.452,14.224ZM192.826,14l-.518-3.206V6.006h2.856v5.236L195.682,14Zm3.682-7.994h2.912l.476,2.856V14H197.04V8.694Zm7.14-.126V8.316a7.768,7.768,0,0,0-.791-.119q-.371-.035-.679-.035a2.618,2.618,0,0,0-1.134.245,1.87,1.87,0,0,0-.833.805,3.054,3.054,0,0,0-.315,1.5l-.546-.672a10.6,10.6,0,0,1,.336-1.631,5.158,5.158,0,0,1,.609-1.358,2.919,2.919,0,0,1,.959-.938,2.684,2.684,0,0,1,1.4-.343,4.438,4.438,0,0,1,.49.028A4.73,4.73,0,0,1,203.648,5.88Zm5.46,8.344a6.077,6.077,0,0,1-2.6-.532,4.363,4.363,0,0,1-1.8-1.491,3.85,3.85,0,0,1-.658-2.233,3.857,3.857,0,0,1,.63-2.191A4.255,4.255,0,0,1,206.413,6.3a5.631,5.631,0,0,1,2.485-.532,4.609,4.609,0,0,1,2.457.623,4.133,4.133,0,0,1,1.568,1.757,6.039,6.039,0,0,1,.553,2.674h-7.112V9.1h5.5l-.938.6a2.471,2.471,0,0,0-.308-1.043,1.712,1.712,0,0,0-.665-.651,2.042,2.042,0,0,0-.987-.224,2.166,2.166,0,0,0-1.078.252,1.816,1.816,0,0,0-.7.693,2.038,2.038,0,0,0-.252,1.029,2.292,2.292,0,0,0,.343,1.281,2.167,2.167,0,0,0,1.008.805,4.206,4.206,0,0,0,1.631.28,6.857,6.857,0,0,0,1.757-.231,6.276,6.276,0,0,0,1.589-.651v1.82a6.5,6.5,0,0,1-1.883.861A8.275,8.275,0,0,1,209.108,14.224Z" transform="translate(87 422)" fill="#c8c4d9"/>
  </g>
</svg>
